<svg xmlns="http://www.w3.org/2000/svg" enable-background="new 0 0 100 100" viewBox="0 0 100 100"><path d="M66.16 30.904c-4.81-4.515-11.104-6.774-17.708-6.351-11.787.757-21.255 10.211-22.024 21.993-.402 6.265 1.623 12.316 5.712 17.05.605.691 1.826 2.629 3.196 7.829.353 1.35.932 2.594 1.706 3.721v6.527c0 3.97 2.481 7.365 5.971 8.735C43.335 92.982 46.338 95 50 95c3.581 0 6.529-1.93 6.959-4.422 3.732-1.242 6.434-4.76 6.434-8.904v-7.401c.519-.915.934-1.892 1.21-2.941 1.294-4.995 2.491-6.874 3.087-7.549 3.825-4.315 5.931-9.873 5.931-15.65C73.622 41.635 70.902 35.354 66.16 30.904zM59.393 81.674c0 2.971-2.417 5.388-5.388 5.388H46.43c-2.971 0-5.388-2.417-5.388-5.388v-4.955h18.351V81.674zM64.696 61.132c-1.505 1.7-2.802 4.708-3.963 9.188-.229.867-.583 1.67-1.056 2.398h-8.681V58.494c4.238-.716 7.48-4.402 7.48-8.841 0-4.949-4.026-8.976-8.976-8.976s-8.976 4.026-8.976 8.976c0 4.436 3.237 8.12 7.471 8.839v14.226h-7.775c-.456-.703-.797-1.475-1.016-2.31-1.221-4.635-2.547-7.725-4.046-9.438-3.391-3.925-5.074-8.957-4.739-14.167.638-9.78 8.5-17.631 18.287-18.259 5.488-.346 10.72 1.524 14.716 5.275 3.997 3.751 6.199 8.834 6.199 14.312C69.622 52.932 67.873 57.548 64.696 61.132zM49.5 55.629c-3.295 0-5.976-2.681-5.976-5.976s2.681-5.976 5.976-5.976 5.976 2.681 5.976 5.976S52.795 55.629 49.5 55.629zM17.51 45.941H9.059c-.994 0-1.8.806-1.8 1.8s.806 1.8 1.8 1.8h8.451c.994 0 1.8-.806 1.8-1.8S18.504 45.941 17.51 45.941zM90.941 45.941H82.49c-.994 0-1.8.806-1.8 1.8s.806 1.8 1.8 1.8h8.451c.994 0 1.8-.806 1.8-1.8S91.936 45.941 90.941 45.941zM25.753 69.443l-5.976 5.976c-.703.702-.703 1.842 0 2.545.352.352.812.527 1.273.527.46 0 .921-.176 1.273-.527l5.976-5.976c.703-.702.703-1.842 0-2.545C27.597 68.741 26.457 68.74 25.753 69.443zM72.974 26.567c.46 0 .921-.176 1.273-.527l5.976-5.976c.703-.702.703-1.842 0-2.545-.702-.702-1.842-.703-2.546 0l-5.976 5.976c-.703.702-.703 1.842 0 2.545C72.053 26.392 72.513 26.567 72.974 26.567zM48.2 6.8v8.451c0 .994.806 1.8 1.8 1.8s1.8-.806 1.8-1.8V6.8C51.8 5.806 50.994 5 50 5S48.2 5.806 48.2 6.8zM74.247 69.443c-.703-.703-1.843-.703-2.546 0-.703.703-.703 1.843 0 2.545l5.976 5.976c.352.352.813.527 1.273.527s.921-.176 1.273-.527c.703-.703.703-1.843 0-2.545L74.247 69.443zM25.753 26.04c.352.352.813.527 1.273.527s.921-.176 1.273-.527c.703-.703.703-1.843 0-2.545l-5.976-5.976c-.703-.703-1.843-.703-2.546 0-.703.703-.703 1.843 0 2.545L25.753 26.04z"/></svg>